<svg xmlns="http://www.w3.org/2000/svg" viewBox="0 0 200 200" fill="none">
  <!-- Outer ring -->
  <circle cx="90" cy="88" r="76" fill="#0b2a6b"/>
  <!-- Gap lines (3 segments) -->
  <line x1="90" y1="12" x2="90" y2="36" stroke="white" stroke-width="5"/>
  <line x1="22" y1="126" x2="42" y2="114" stroke="white" stroke-width="5"/>
  <line x1="158" y1="126" x2="138" y2="114" stroke="white" stroke-width="5"/>
  <!-- Inner ring -->
  <circle cx="90" cy="88" r="46" fill="#0b2a6b"/>
  <!-- Inner ring border -->
  <circle cx="90" cy="88" r="46" stroke="white" stroke-width="4" fill="none"/>
  <!-- Center hub -->
  <circle cx="90" cy="88" r="16" fill="#0b2a6b"/>
  <circle cx="90" cy="88" r="16" stroke="white" stroke-width="3.5" fill="none"/>
  <!-- Center hole -->
  <circle cx="90" cy="88" r="6" fill="white"/>
  <!-- Bolt holes -->
  <circle cx="90" cy="66" r="4.5" fill="white"/>
  <circle cx="71" cy="99" r="4.5" fill="white"/>
  <circle cx="109" cy="99" r="4.5" fill="white"/>
  <!-- Wrench handle -->
  <rect x="124" y="114" width="15" height="58" rx="6" transform="rotate(-38 124 114)" fill="#0b2a6b"/>
  <!-- Wrench jaw -->
  <path d="M112,128 L100,148 L108,154 L122,134 Z" fill="#0b2a6b"/>
  <path d="M148,98 L158,116 L150,120 L140,104 Z" fill="#0b2a6b"/>
</svg>
