<?xml version="1.0" encoding="UTF-8"?>
<svg version="1.1" xmlns="http://www.w3.org/2000/svg" width="423" height="500">
<path d="M0 0 C139.59 0 279.18 0 423 0 C423 165 423 330 423 500 C283.41 500 143.82 500 0 500 C0 335 0 170 0 0 Z " fill="#ffffff" transform="translate(0,0)"/>
<path d="M0 0 C1.56214055 -0.00083164 3.12428099 -0.00330209 4.68641663 -0.00730896 C7.93989816 -0.01014614 11.19268339 0.00432552 14.44604492 0.03198242 C18.57558257 0.06603355 22.70387526 0.06003674 26.83347225 0.04131985 C30.05357378 0.03065065 33.2733955 0.03977696 36.49347115 0.05470467 C38.01419806 0.05981654 39.53495509 0.0594918 41.05567741 0.05315971 C54.86151509 0.01723865 67.32914227 1.82044395 78.47265625 10.62890625 C79.50390625 11.37140625 80.53515625 12.11390625 81.59765625 12.87890625 C89.31789012 20.26347778 96.08809245 30.73971718 96.5620594 41.69545937 C96.59580597 44.28685143 96.59623887 46.87642068 96.58618164 49.46801758 C96.58632767 50.45385834 96.58647369 51.4396991 96.58662415 52.45541382 C96.58592862 55.70727759 96.57815306 58.95908376 96.5703125 62.2109375 C96.56844704 64.46823597 96.56702374 66.72553484 96.56602478 68.98283386 C96.56220968 74.91923137 96.55238797 80.85560436 96.5413208 86.79199219 C96.53108505 92.85155912 96.52652252 98.91113003 96.52148438 104.97070312 C96.51076481 116.85678334 96.49317614 128.74283891 96.47265625 140.62890625 C108.02265625 140.62890625 119.57265625 140.62890625 131.47265625 140.62890625 C129.49265625 142.93890625 127.51265625 145.24890625 125.47265625 147.62890625 C124.19690608 149.38770745 122.9617599 151.1772908 121.78515625 153.00390625 C121.22441406 153.85726562 120.66367188 154.710625 120.0859375 155.58984375 C116.17317516 162.9606164 114.93969084 169.70220416 115.03515625 178.00390625 C115.04272949 178.92856689 115.05030273 179.85322754 115.05810547 180.8059082 C115.22503412 187.72369962 116.1540315 193.47306219 119.47265625 199.62890625 C119.9315625 200.49644531 120.39046875 201.36398437 120.86328125 202.2578125 C123.96171702 207.72899776 127.26727197 211.72262459 131.47265625 216.62890625 C120.25265625 216.62890625 109.03265625 216.62890625 97.47265625 216.62890625 C97.49622192 220.89683105 97.49622192 220.89683105 97.52026367 225.25097656 C97.57013125 234.68651573 97.60317362 244.12206094 97.62809277 253.5576973 C97.64370126 259.2745388 97.6648511 264.99124446 97.69897461 270.70800781 C97.73174035 276.23232089 97.74954543 281.75650387 97.75728798 287.28090668 C97.76280071 289.38107092 97.77356517 291.48122861 97.78984642 293.58133698 C97.92456852 311.69094889 96.60947549 328.93030964 83.44140625 342.8203125 C74.80426376 350.7548303 63.75042155 356.76270463 51.77764893 356.74916077 C50.83817917 356.75053543 49.89870941 356.7519101 48.93077087 356.75332642 C47.90722 356.74973114 46.88366913 356.74613586 45.82910156 356.74243164 C44.74587112 356.74257767 43.66264069 356.74272369 42.54658508 356.74287415 C38.96463013 356.74217725 35.38272712 356.7343952 31.80078125 356.7265625 C29.31785104 356.72469753 26.83492046 356.723274 24.35198975 356.72227478 C18.48368816 356.7188462 12.61540576 356.71096394 6.74711204 356.70092529 C-0.59046397 356.68864599 -7.92804107 356.68327922 -15.265625 356.67773438 C-28.35287406 356.66700801 -41.44010772 356.65013111 -54.52734375 356.62890625 C-54.64186666 316.33890505 -54.72993198 276.04892512 -54.7826704 235.75879358 C-54.78892369 230.99878204 -54.79539533 226.23877083 -54.80200195 221.47875977 C-54.80331351 220.5311543 -54.80462506 219.58354884 -54.80597635 218.60722806 C-54.82771426 203.27735973 -54.86712687 187.94758545 -54.91310773 172.61777285 C-54.95991735 156.88003325 -54.98764867 141.14234279 -54.99778622 125.40453643 C-55.00463605 115.69873174 -55.02624584 105.99319294 -55.06692608 96.28747012 C-55.09342011 89.62576093 -55.10132971 82.96418856 -55.09485064 76.30243055 C-55.09165806 72.46275762 -55.0964426 68.62354827 -55.12337112 64.78395844 C-55.15242511 60.61058136 -55.14223001 56.43818068 -55.12861633 52.26472473 C-55.14318054 51.06527011 -55.15774475 49.86581549 -55.17275029 48.63001376 C-55.05833408 35.60143927 -50.32863895 24.24892658 -41.52734375 14.62890625 C-29.24173667 3.32896392 -16.36009995 -0.16024022 0 0 Z " fill="#0b2a6b" transform="translate(54.52734375,143.37109375)"/>
<path d="M0 0 C0 118.8 0 237.6 0 360 C-57.42 360 -114.84 360 -174 360 C-172.02 357.69 -170.04 355.38 -168 353 C-166.69059645 350.99591289 -165.43421039 348.95551641 -164.25 346.875 C-163.67765625 345.88242187 -163.1053125 344.88984375 -162.515625 343.8671875 C-158.5003776 336.27133288 -157.83339611 329.39002351 -157.875 320.9375 C-157.87113281 320.14794922 -157.86726563 319.35839844 -157.86328125 318.54492188 C-157.86521484 317.3915332 -157.86521484 317.3915332 -157.8671875 316.21484375 C-157.86831543 315.52511475 -157.86944336 314.83538574 -157.87060547 314.12475586 C-157.98207963 311.49962731 -157.98207963 311.49962731 -159 307 C-154.71 299.41 -150.42 291.82 -146 284 C-117.95 284 -89.9 284 -61 284 C-61.33 230.21 -61.66 176.42 -62 121 C-66.29 128.59 -70.58 136.18 -75 144 C-77.59292912 148.48677274 -80.18933898 152.96874703 -82.8125 157.4375 C-83.72612305 158.99887695 -83.72612305 158.99887695 -84.65820312 160.59179688 C-86.10395202 163.06209223 -87.55116881 165.53151166 -89 168 C-88.51273437 168.59683594 -88.02546875 169.19367188 -87.5234375 169.80859375 C-85.49466931 172.72689876 -85.55518878 174.51564548 -86 178 C-87.125 179.875 -87.125 179.875 -89 181 C-92.09501208 181.25265405 -94.20129973 181.39935013 -97 180 C-97.99 182.97 -97.99 182.97 -99 186 C-98.01 186.33 -97.02 186.66 -96 187 C-94.56085919 193.23627685 -94.56085919 193.23627685 -96.4375 196.5 C-100.25925696 198.73712603 -102.71719131 197.85656174 -107 197 C-107.16687448 199.41645782 -107.16687448 199.41645782 -107 202 C-106.34 202.66 -105.68 203.32 -105 204 C-104.69412214 207.36465641 -104.46645388 209.93290775 -106 213 C-109.35505337 214.67752669 -112.37531195 213.65363227 -116 213 C-116.268125 213.763125 -116.53625 214.52625 -116.8125 215.3125 C-117.9612484 217.91229902 -118.9685876 219.10215992 -121 221 C-149.35792096 204.74285575 -149.35792096 204.74285575 -160 198 C-159.31620454 194.04991941 -158.21156817 191.36542982 -156 188 C-157.32 187.34 -158.64 186.68 -160 186 C-160.125 182.625 -160.125 182.62 5 -160 179 C-158 177 -158 177 -154.5 176.8125 C-151 177 -151 177 -149 178 C-148.23283149 175.14921909 -148.23283149 175.14921909 -148 172 C-148.495 171.525625 -148.99 171.05125 -149.5 170.5625 C-149.995 170.046875 -150.49 169.53125 -151 169 C-150.875 165.4375 -150.875 165.4375 -150 162 C-146.3558226 159.5705484 -144.28758728 159.83820425 -140 160 C-139.3185177 158.10820797 -139.3185177 158.10820797 -139 156 C-139.99 155.01 -139.99 155.01 -141 154 C-141.30587786 150.63534359 -141.53354612 148.06709225 -140 145 C-136.64494663 143.32247331 -133.62468805 144.34636773 -130 145 C-129.72994141 144.28553711 -129.45988281 143.57107422 -129.18164062 142.83496094 C-127.988065 139.97136586 -126.61173477 137.34531107 -125.09375 134.640625 C-124.23305908 133.10390137 -124.23305908 133.10390137 -123.35498047 131.53613281 C-122.74283691 130.45170898 -122.13069336 129.36728516 -121.5 128.25 C-120.86852051 127.1269043 -120.23704102 126.00380859 -119.58642578 124.84667969 C-115.6960341 117.94733635 -111.74879366 111.08613631 -107.70263672 104.27709961 C-103.74680355 97.61271674 -99.9198769 90.87602116 -96.10888672 84.12792969 C-94.05560275 80.5098754 -92.01850643 76.9591841 -89.61328125 73.5625 C-87.6463391 71.09033685 -87.6463391 71.09033685 -88.5625 68.1875 C-89.036875 67.135625 -89.51125 66.08375 -90 65 C-92.47020287 58.82603671 -93.5248865 53.32887405 -93.4375 46.6875 C-93.42847656 45.85863281 -93.41945313 45.02976563 -93.41015625 44.17578125 C-93.04142485 31.02436143 -88.02228152 21.45941149 -79.0546875 11.93359375 C-57.72421062 -8.05833094 -27.50969151 0 0 0 Z " fill="#0b2a6b" transform="translate(423,0)"/>
<path d="M0 0 C0.33 0 0.66 0 1 0 C1 74.91 1 149.82 1 227 C-9.56 227 -20.12 227 -31 227 C-31 163.31 -31 99.62 -31 34 C-26.05 31.36 -21.1 28.72 -16 26 C-8.05172484 18.43944558 -3.05496561 10.55351757 0 0 Z " fill="#FEFEFE" transform="translate(422,57)"/>
<path d="M0 0 C5.5633371 2.11454062 10.58403504 5.00593689 15.75 7.9375 C16.72066406 8.47568359 17.69132812 9.01386719 18.69140625 9.56835938 C19.61308594 10.09107422 20.53476562 10.61378906 21.484375 11.15234375 C22.74846191 11.8637854 22.74846191 11.8637854 24.03808594 12.58959961 C26 14 26 14 27 17 C25.98706055 19.36572266 25.98706055 19.36572266 24.38671875 22.1640625 C23.51176758 23.71009155 23.51176758 23.71009155 22.61914062 25.28735352 C21.98169922 26.38877686 21.34425781 27.4902002 20.6875 28.625 C20.04103516 29.75929443 19.39457031 30.89358887 18.72851562 32.06225586 C16.83131716 35.38211767 14.91950794 38.6929962 13 42 C12.53029785 42.80937012 12.0605957 43.61874023 11.57666016 44.45263672 C9.19822718 48.53674858 6.79141503 52.6036341 4.37939453 56.66796875 C0.33893341 63.49885099 -3.65497938 70.35681226 -7.62890625 77.2265625 C-9.68726771 80.77867961 -11.78756816 84.29306731 -13.96484375 87.7734375 C-19.08194916 95.42117979 -19.08194916 95.42117979 -19.625 104.25 C-19.12341949 105.51661745 -18.58341862 106.76893319 -18 108 C-15.79081574 115.38371653 -16.48142636 122.55789356 -19.61328125 129.546875 C-24.21665789 137.69031312 -30.88999382 143.6503413 -39.8203125 146.6015625 C-48.33941386 148.15881759 -57.23552927 148.10217192 -64.7890625 143.59765625 C-72.73113102 137.85859967 -77.47449881 131.58992156 -80 122 C-81.22691898 112.70581729 -79.91625412 105.49898894 -74.4921875 97.8828125 C-69.85103143 92.16231781 -64.05028403 87.35009468 -57 85 C-55.43881572 84.93259135 -53.8749748 84.91485544 -52.3125 84.9375 C-51.50425781 84.94652344 -50.69601563 84.95554687 -49.86328125 84.96484375 C-49.24839844 84.97644531 -48.63351563 84.98804688 -48 85 C-47.73155273 84.1219873 -47.46310547 83.24397461 -47.18652344 82.33935547 C-46.0525839 79.14799229 -44.72070877 76.48848908 -43.015625 73.5703125 C-42.41758057 72.5405127 -41.81953613 71.51071289 -41.20336914 70.44970703 C-40.55875732 69.35255371 -39.91414551 68.25540039 -39.25 67.125 C-38.5716745 65.96107166 -37.89386723 64.79684117 -37.21655273 63.63232422 C-35.48216421 60.65332543 -33.74148059 57.67806456 -31.99847412 54.70410156 C-29.91252749 51.14400438 -27.83249973 47.5804461 -25.75170898 44.01733398 C-24.62568751 42.08931311 -23.49889713 40.1617411 -22.37133789 38.23461914 C-19.08530192 32.60919749 -15.82953489 26.96746628 -12.6015625 21.30859375 C-12.04857735 20.33919861 -12.04857735 20.33919861 -11.48442078 19.35021973 C-9.6748308 16.1761029 -7.86815132 13.00036079 -6.06469727 9.82275391 C-5.41815186 8.68628418 -4.77160645 7.54981445 -4.10546875 6.37890625 C-3.52949951 5.3638501 -2.95353027 4.34879395 -2.36010742 3.30297852 C-1 1 -1 1 0 0 Z " fill="#ffffff" transform="translate(266,206)"/>
<path d="M0 0 C4.50719718 2.62359239 7.67559254 5.26065884 9.90625 10.09375 C10.72187575 14.74111753 10.42837479 18.70345346 8.21875 22.90625 C5.38194458 26.81644125 3.41531934 29.48434455 -1.42578125 30.66015625 C-6.81870404 31.42826369 -10.52321285 31.38878841 -15.09375 28.09375 C-19.1213905 24.07705418 -21.21806848 20.51583425 -21.40625 14.78125 C-21.34612316 10.15148338 -20.15966027 7.6568349 -17.09375 4.09375 C-12.07450319 -0.4358142 -6.67607767 -2.88964556 0 0 Z " fill="#ffffff" transform="translate(223.09375,306.90625)"/>
<path d="M0 0 C4.79577294 5.06220477 7.52766852 10.87875167 7.875 17.875 C7.59329244 23.70800364 5.6187634 28.62327057 2.25 33.375 C0.078125 35.15625 0.078125 35.15625 -1.75 36.375 C-1.80437607 34.79205218 -1.84296271 33.20855744 -1.875 31.625 C-1.89820313 30.74328125 -1.92140625 29.8615625 -1.9453125 28.953125 C-1.73830114 26.2205751 -1.02134969 24.76122557 0.25 22.375 C0.88477691 16.02723087 -0.16827107 11.68626242 -3.75 6.375 C-5.63077873 4.46243288 -5.63077873 4.46243288 -7.75 3.375 C-8.61625 2.7871875 -8.61625 2.7871875 -9.5 2.1875 C-14.49967637 0.38206131 -19.1403327 0.82554856 -23.9375 2.875 C-28.36827187 5.36567058 -30.95789897 8.6321838 -32.75 13.375 C-33.35520182 17.25466218 -33.56703583 20.79727564 -31.73046875 24.34375 C-30.5587704 26.77117287 -30.54624159 28.44721393 -30.625 31.125 C-30.64304687 31.92421875 -30.66109375 32.7234375 -30.6796875 33.546875 C-30.70289063 34.15015625 -30.72609375 34.7534375 -30.75 35.375 C-34.15844088 33.99590338 -35.41737535 32.76936506 -36.9375 29.4375 C-37.26105469 28.74785156 -37.58460938 28.05820312 -37.91796875 27.34765625 C-40.44888746 21.34712128 -40.66984113 15.37855868 -38.5625 9.1875 C-35.64280919 2.35678149 -31.25872291 -1.42980875 -24.75 -4.625 C-15.32698965 -7.45190311 -8.17083422 -4.82822022 0 0 Z " fill="#ffffff" transform="translate(392.75,28.625)"/>
<path d="M0 0 C1.88656962 2.82985443 2.67966861 4.92365323 3.6875 8.125 C5.78742123 14.04865839 8.84752948 18.33674723 13 23 C13.78375 23.886875 14.5675 24.77375 15.375 25.6875 C22.90688614 32.32273303 30.30331128 35.4521838 40 38 C40 38.33 40 38.66 40 39 C26.8 39 13.6 39 0 39 C0 26.13 0 13.26 0 0 Z " fill="#ffffff" transform="translate(0,461)"/>
<path d="M0 0 C12.21 0 24.42 0 37 0 C37 11.88 37 23.76 37 36 C35.89154525 33.78309049 34.79883523 31.55730938 33.7734375 29.30078125 C27.37698136 15.63237637 19.03005209 7.84001919 4.875 2.625 C3.25362882 2.07256605 1.62988977 1.52677046 0 1 C0 0.67 0 0.34 0 0 Z " fill="#ffffff" transform="translate(386,0)"/>
<path d="M0 0 C3.99104912 0.30178065 6.19416343 1.73413808 9 4.625 C10.42662219 7.47824437 10.31033868 9.45954549 10 12.625 C8.20006226 15.32490662 6.916227 17.1668865 4 18.625 C0.98834116 18.97060019 -1.094098 19.20840289 -4 18.625 C-7.25932425 15.77309128 -8.73945496 13.87561619 -9.625 9.625 C-8.49306791 4.19172595 -5.76284951 0.30560566 0 0 Z " fill="#0b2a6b" transform="translate(217,312.375)"/>
</svg>
